<?xml version="1.0" encoding="UTF-8"?>
<svg version="1.1" xmlns="http://www.w3.org/2000/svg" width="415" height="114">
<path d="M0 0 C0.721875 0.5775 1.44375 1.155 2.1875 1.75 C2.1875 3.07 2.1875 4.39 2.1875 5.75 C-1.49510481 7.5913024 -6.26289048 6.6959966 -10.33984375 6.53515625 C-15.29011839 6.4401248 -18.46325814 7.10444205 -22.8125 9.75 C-22.3175 11.73 -22.3175 11.73 -21.8125 13.75 C-23.16214844 13.61078125 -23.16214844 13.61078125 -24.5390625 13.46875 C-27.90107855 13.44069519 -27.90107855 13.44069519 -30.1484375 15.71875 C-31.15777344 16.97171875 -31.15777344 16.97171875 -32.1875 18.25 C-32.87585938 19.0853125 -33.56421875 19.920625 -34.2734375 20.78125 C-34.78132813 21.4309375 -35.28921875 22.080625 -35.8125 22.75 C-34.86375 22.605625 -33.915 22.46125 -32.9375 22.3125 C-31.5628423 22.12250666 -30.18779505 21.93532345 -28.8125 21.75 C-27.98234375 21.63140625 -27.1521875 21.5128125 -26.296875 21.390625 C-18.01411043 20.34907975 -18.01411043 20.34907975 -13.8125 22.75 C-12.4203125 23.4925 -12.4203125 23.4925 -11 24.25 C-10.278125 24.745 -9.55625 25.24 -8.8125 25.75 C-8.8125 26.41 -8.8125 27.07 -8.8125 27.75 C-7.94625 27.09 -7.08 26.43 -6.1875 25.75 C-2.59826537 23.62304615 -0.88555202 23.36209028 3.1875 23.75 C3.1875 28.01826873 2.81136487 28.68882432 0.1875 31.75 C0.8475 31.42 1.5075 31.09 2.1875 30.75 C3.1775 30.42 4.1675 30.09 5.1875 29.75 C5.1875 29.09 5.1875 28.43 5.1875 27.75 C5.8475 27.75 6.5075 27.75 7.1875 27.75 C7.1875 27.09 7.1875 26.43 7.1875 25.75 C7.8475 25.75 8.5075 25.75 9.1875 25.75 C9.1875 25.09 9.1875 24.43 9.1875 23.75 C11.1675 23.42 13.1475 23.09 15.1875 22.75 C16.1775 24.73 16.1775 24.73 17.1875 26.75 C16.1975 27.74 15.2075 28.73 14.1875 29.75 C14.5175 30.08 14.8475 30.41 15.1875 30.75 C16.239375 29.5125 16.239375 29.5125 17.3125 28.25 C20.1875 25.75 20.1875 25.75 23.3125 25.4375 C24.26125 25.540625 25.21 25.64375 26.1875 25.75 C27.1775 25.75 28.1675 25.75 29.1875 25.75 C29.8475 25.09 30.5075 24.43 31.1875 23.75 C33.87589385 23.48008094 36.47891936 23.66262643 39.1875 23.75 C40.1775 26.225 40.1775 26.225 41.1875 28.75 C42.115625 27.945625 43.04375 27.14125 44 26.3125 C46.18029031 24.42291506 47.36087435 23.69220855 50.1875 22.75 C50.89003906 22.86859375 51.59257812 22.9871875 52.31640625 23.109375 C55.33507997 23.59391332 57.23018654 23.61341874 60.1875 22.75 C63.69057956 19.276904 66.37518896 15.47850232 69.08886719 11.37744141 C73.24456522 5.22146739 73.24456522 5.22146739 76.1875 3.75 C78.18710012 3.710008 80.18797242 3.70653201 82.1875 3.75 C81.61805145 7.35650749 80.36396999 8.82843192 77.6875 11.25 C71.38889071 17.30985335 65.08961043 24.3949768 62.1875 32.75 C62.909375 32.1725 63.63125 31.595 64.375 31 C65.303125 30.2575 66.23125 29.515 67.1875 28.75 C68.5178125 27.6671875 68.5178125 27.6671875 69.875 26.5625 C73.50992657 23.7135035 75.57028043 23.39482926 80.1875 23.75 C83.5625 25.25 83.5625 25.25 86.1875 26.75 C86.1875 28.07 86.1875 29.39 86.1875 30.75 C85.5275 30.75 84.8675 30.75 84.1875 30.75 C84.1875 31.74 84.1875 32.73 84.1875 33.75 C86.74922531 31.81139707 88.94030761 30.07958985 90.875 27.5 C91.308125 26.9225 91.74125 26.345 92.1875 25.75 C92.8475 25.75 93.5075 25.75 94.1875 25.75 C94.5175 24.43 94.8475 23.11 95.1875 21.75 C94.1975 21.069375 94.1975 21.069375 93.1875 20.375 C92.1975 19.570625 92.1975 19.570625 91.1875 18.75 C91.1875 18.09 91.1875 17.43 91.1875 16.75 C91.88875 16.68683594 92.59 16.62367187 93.3125 16.55859375 C100.17972685 15.67219898 103.5260839 14.03028432 108.39453125 9.171875 C110.1875 7.75 110.1875 7.75 113.6875 7.8125 C114.5125 8.121875 115.3375 8.43125 116.1875 8.75 C115.68146008 10.91874252 115.18766187 12.74967627 114.1875 14.75 C115.8375 15.08 117.4875 15.41 119.1875 15.75 C118.878125 16.636875 118.56875 17.52375 118.25 18.4375 C117.1527458 21.59104139 117.1527458 21.59104139 116.75 24.3125 C116.07281904 27.24695082 114.93260964 29.3068465 113.1875 31.75 C112.5275 31.75 111.8675 31.75 111.1875 31.75 C111.1875 32.74 111.1875 33.73 111.1875 34.75 C114.85806937 33.27202738 116.59835783 31.27384523 118.9375 28.125 C119.85789062 26.89910156 119.85789062 26.89910156 120.796875 25.6484375 C121.25578125 25.02195312 121.7146875 24.39546875 122.1875 23.75 C125.98053725 24.75193437 128.90286341 25.56024227 132.1875 27.75 C132.744375 27.42 133.30125 27.09 133.875 26.75 C136.52291539 25.60495551 138.32888531 25.60340437 141.1875 25.75 C142.1775 25.75 143.1675 25.75 144.1875 25.75 C144.8475 25.09 145.5075 24.43 146.1875 23.75 C149.8125 23.625 149.8125 23.625 153.1875 23.75 C154.19571159 26.43856424 154.41486824 28.16703215 153.36328125 30.86328125 C152.35354698 32.85794931 151.30643353 34.8146772 150.1875 36.75 C151.1775 37.08 152.1675 37.41 153.1875 37.75 C149.86442308 41.68846154 149.86442308 41.68846154 146.4375 42 C145.695 41.9175 144.9525 41.835 144.1875 41.75 C143.5275 39.44 142.8675 37.13 142.1875 34.75 C139.5475 36.73 136.9075 38.71 134.1875 40.75 C132.8675 40.09 131.5475 39.43 130.1875 38.75 C128.06385519 38.52390663 128.06385519 38.52390663 126.5625 40.25 C123.0483713 42.4694497 120.29816785 41.95553339 116.1875 41.75 C115.8575 41.09 115.5275 40.43 115.1875 39.75 C111.89674004 40.12904208 111.89674004 40.12904208 109.1875 41.75 C107.52132885 41.79063832 105.85361905 41.792721 104.1875 41.75 C103.8575 40.43 103.5275 39.11 103.1875 37.75 C102.67960938 38.03875 102.17171875 38.3275 101.6484375 38.625 C97.36003544 40.93784606 94.18669599 42.44756223 89.1875 41.75 C88.1975 41.09 87.2075 40.43 86.1875 39.75 C85.1975 40.41 84.2075 41.07 83.1875 41.75 C80.5 41.875 80.5 41.875 78.1875 41.75 C77.1975 39.77 77.1975 39.77 76.1875 37.75 C75.15625 38.41 74.125 39.07 73.0625 39.75 C68.43422223 42.37610529 65.13147821 42.24552386 60 40.9375 C57.29055729 39.79351308 56.13690047 38.84891201 54.1875 36.75 C53.22714844 37.56855469 52.26679688 38.38710937 51.27734375 39.23046875 C46.82936143 42.40759898 43.06035247 42.34064094 37.75 42.0625 C36.92306641 42.03994141 36.09613281 42.01738281 35.24414062 41.99414062 C33.22446423 41.93576847 31.20573279 41.84610632 29.1875 41.75 C28.5275 39.44 27.8675 37.13 27.1875 34.75 C26.32125 35.575 25.455 36.4 24.5625 37.25 C22.00859359 39.40865899 21.32110249 39.7376294 17.8125 40.0625 C16.513125 39.9078125 16.513125 39.9078125 15.1875 39.75 C15.1875 39.09 15.1875 38.43 15.1875 37.75 C14.5275 37.75 13.8675 37.75 13.1875 37.75 C13.1875 38.41 13.1875 39.07 13.1875 39.75 C9.5433226 42.1794516 7.47508728 41.91179575 3.1875 41.75 C3.1875 40.76 3.1875 39.77 3.1875 38.75 C2.135625 39.265625 1.08375 39.78125 0 40.3125 C-3.29988531 41.7382111 -5.33036498 41.97898883 -8.8125 40.75 C-9.8125 39.75 -9.8125 39.75 -9.9375 36.8125 C-9.8125 33.75 -9.8125 33.75 -8.8125 31.75 C-9.32039063 32.22050781 -9.82828125 32.69101563 -10.3515625 33.17578125 C-17.96827007 40.06505046 -17.96827007 40.06505046 -22.8125 41.75 C-26.54194805 41.53483954 -28.15196492 41.41053508 -30.8125 38.75 C-30.54082465 33.95040219 -29.55812195 30.68937062 -26.8125 26.75 C-27.56015625 26.9665625 -28.3078125 27.183125 -29.078125 27.40625 C-30.06296875 27.6846875 -31.0478125 27.963125 -32.0625 28.25 C-33.03703125 28.5284375 -34.0115625 28.806875 -35.015625 29.09375 C-37.8125 29.75 -37.8125 29.75 -41.8125 29.75 C-42.17214844 30.5234375 -42.17214844 30.5234375 -42.5390625 31.3125 C-43.89357515 33.90518678 -45.42899424 36.35353614 -46.98657227 38.82788086 C-51.39377969 45.88174222 -54.65627495 52.65284721 -56.8125 60.75 C-57.8025 60.75 -58.7925 60.75 -59.8125 60.75 C-62.07323473 56.22853054 -61.31742373 51.29011484 -59.80078125 46.6640625 C-57.79587433 41.78726188 -55.60028576 37.230078 -52.8125 32.75 C-53.4725 32.09 -54.1325 31.43 -54.8125 30.75 C-54.8125 29.43 -54.8125 28.11 -54.8125 26.75 C-49.0625 25.75 -49.0625 25.75 -46.8125 25.75 C-46.565 25.21375 -46.3175 24.6775 -46.0625 24.125 C-44.50597463 21.1676018 -42.77814327 18.45275949 -40.8125 15.75 C-40.1525 15.75 -39.4925 15.75 -38.8125 15.75 C-38.8125 15.09 -38.8125 14.43 -38.8125 13.75 C-38.1525 13.75 -37.4925 13.75 -36.8125 13.75 C-36.4825 12.43 -36.1525 11.11 -35.8125 9.75 C-36.92625 9.6675 -38.04 9.585 -39.1875 9.5 C-42.8125 8.75 -42.8125 8.75 -44.25 6.6875 C-44.435625 6.048125 -44.62125 5.40875 -44.8125 4.75 C-43.625 2.75 -43.625 2.75 -41.8125 0.75 C-39.1875 0.4375 -39.1875 0.4375 -36.8125 0.75 C-36.4825 1.08 -36.1525 1.41 -35.8125 1.75 C-26.99372291 2.23629524 -18.19737079 2.68830982 -9.85546875 -0.59375 C-6.16417352 -1.77948155 -3.51920684 -1.56409193 0 0 Z M111.1875 21.75 C107.06123844 21.6622072 105.05908136 22.07148161 101.75390625 24.64453125 C96.29293882 29.77483654 96.29293882 29.77483654 94.1875 36.75 C101.41732406 35.63771938 106.99011081 29.44611815 112.1875 24.75 C111.8575 23.76 111.5275 22.77 111.1875 21.75 Z M48.5625 30.125 C46.97218592 31.64968321 46.97218592 31.64968321 47.1875 33.75 C46.5275 33.75 45.8675 33.75 45.1875 33.75 C44.8575 34.74 44.5275 35.73 44.1875 36.75 C47.13762857 35.38029745 49.7527222 33.92390875 52.1875 31.75 C52.1875 30.76 52.1875 29.77 52.1875 28.75 C50.08718321 28.53468592 50.08718321 28.53468592 48.5625 30.125 Z M-22.875 31.5625 C-25.14401762 33.63726618 -25.14401762 33.63726618 -24.8125 36.75 C-22.64375748 36.24396008 -20.81282373 35.75016187 -18.8125 34.75 C-19.1425 33.1 -19.4725 31.45 -19.8125 29.75 C-21.14492841 29.6399809 -21.14492841 29.6399809 -22.875 31.5625 Z M11.1875 31.75 C11.1875 32.41 11.1875 33.07 11.1875 33.75 C11.8475 33.42 12.5075 33.09 13.1875 32.75 C12.5275 32.42 11.8675 32.09 11.1875 31.75 Z M38.1875 31.75 C37.15736723 33.39821244 36.15635372 35.06503702 35.1875 36.75 C36.1775 37.245 36.1775 37.245 37.1875 37.75 C37.8475 35.77 38.5075 33.79 39.1875 31.75 C38.8575 31.75 38.5275 31.75 38.1875 31.75 Z M71.1875 31.75 C70.1975 33.235 70.1975 33.235 69.1875 34.75 C70.5075 34.09 71.8275 33.43 73.1875 32.75 C72.5275 32.42 71.8675 32.09 71.1875 31.75 Z M120.5625 34.25 C120.10875 34.745 119.655 35.24 119.1875 35.75 C120.1775 35.75 121.1675 35.75 122.1875 35.75 C122.8475 34.76 123.5075 33.77 124.1875 32.75 C122.06385519 32.52390663 122.06385519 32.52390663 120.5625 34.25 Z " fill="#1C1C1C" transform="translate(235.8125,33.25)"/>
<path d="M0 0 C3.25 0.1875 3.25 0.1875 5.5625 1.1875 C11.33238701 3.3344347 16.70725235 2.58436385 22.25 0.1875 C25.4375 -0.0625 25.4375 -0.0625 28.25 0.1875 C30.25 2.1875 30.25 2.1875 30.25 5.1875 C30.86875 5.249375 31.4875 5.31125 32.125 5.375 C34.25 6.1875 34.25 6.1875 35.6875 8.3125 C36.35330864 11.71552195 35.47473568 13.20054516 34 16.2421875 C31.93883975 21.58832191 32.9660461 26.80253064 34.9375 32 C36.38355274 35.88329655 36.38355274 35.88329655 35.125 38.75 C33.25 40.1875 33.25 40.1875 30.25 40.1875 C30.105625 40.826875 29.96125 41.46625 29.8125 42.125 C29.25 44.1875 29.25 44.1875 28.25 45.1875 C24.92255811 45.41964711 22.48444251 45.26731021 19.3125 44.1875 C13.3951178 42.25529357 8.97866616 43.23731577 3.25 45.1875 C0 45.4375 0 45.4375 -2.75 45.1875 C-3.41 44.5275 -4.07 43.8675 -4.75 43.1875 C-4.75 42.1975 -4.75 41.2075 -4.75 40.1875 C-5.389375 40.043125 -6.02875 39.89875 -6.6875 39.75 C-8.75 39.1875 -8.75 39.1875 -9.75 38.1875 C-9.37206515 34.28217317 -8.98947487 30.9059246 -7.75 27.1875 C-7.30137324 21.71008029 -7.86540343 17.37014057 -9.75 12.1875 C-9.875 9.3125 -9.875 9.3125 -9.75 7.1875 C-8.945625 6.94 -8.14125 6.6925 -7.3125 6.4375 C-4.58364774 5.47371485 -4.58364774 5.47371485 -4 3.125 C-3.9175 2.485625 -3.835 1.84625 -3.75 1.1875 C-2.75 0.1875 -2.75 0.1875 0 0 Z M9.25 19.1875 C9.58 21.1675 9.91 23.1475 10.25 25.1875 C13.22 25.6825 13.22 25.6825 16.25 26.1875 C16.25 23.8775 16.25 21.5675 16.25 19.1875 C13.94 19.1875 11.63 19.1875 9.25 19.1875 Z " fill="#C90809" transform="translate(29.75,31.8125)"/>
<path d="M0 0 C1.125 5.625 1.125 5.625 0 9 C-3 8 -3 8 -4.40234375 6.45703125 C-6.51542777 4.52993995 -7.74442247 4.62714579 -10.5625 4.6875 C-11.34753906 4.69136719 -12.13257813 4.69523437 -12.94140625 4.69921875 C-15.22126834 4.82296977 -15.22126834 4.82296977 -17 7 C-17.16687448 9.58354218 -17.16687448 9.58354218 -17 12 C-12.67662359 13.89147718 -8.38531105 15.60434938 -3.89453125 17.05859375 C-1.26226121 18.36658773 0.20696186 19.65525781 2 22 C2.390625 25.234375 2.390625 25.234375 2.25 28.75 C2.21390625 29.92046875 2.1778125 31.0909375 2.140625 32.296875 C2.09421875 33.18890625 2.0478125 34.0809375 2 35 C1.34 35 0.68 35 0 35 C-0.2475 35.61875 -0.495 36.2375 -0.75 36.875 C-2.2663605 39.45281284 -3.24565358 39.91548363 -6 41 C-8.38183594 41.22705078 -8.38183594 41.22705078 -10.984375 41.1953125 C-11.91894531 41.18886719 -12.85351562 41.18242188 -13.81640625 41.17578125 C-15.26853516 41.15064453 -15.26853516 41.15064453 -16.75 41.125 C-17.73355469 41.11597656 -18.71710938 41.10695312 -19.73046875 41.09765625 C-22.15389407 41.07412785 -24.57682222 41.04125368 -27 41 C-27.33 39.35 -27.66 37.7 -28 36 C-28.61875 36.639375 -29.2375 37.27875 -29.875 37.9375 C-33.37406511 41.33365144 -35.53261122 41.11922247 -40.3203125 41.09765625 C-41.57714844 41.09443359 -42.83398438 41.09121094 -44.12890625 41.08789062 C-45.44761719 41.07951172 -46.76632813 41.07113281 -48.125 41.0625 C-49.46484211 41.05748489 -50.804686 41.05292201 -52.14453125 41.04882812 C-55.42973206 41.03701086 -58.71484397 41.02053617 -62 41 C-61.67547852 40.32654541 -61.35095703 39.65309082 -61.01660156 38.95922852 C-59.78814222 35.38330256 -59.74099043 32.43235373 -59.734375 28.65234375 C-59.73246155 27.95863174 -59.7305481 27.26491974 -59.72857666 26.55018616 C-59.72722123 25.09033849 -59.73087265 23.63047851 -59.73925781 22.1706543 C-59.74998332 19.94096776 -59.7393329 17.71208384 -59.7265625 15.48242188 C-59.72788389 14.05989406 -59.73044586 12.63736675 -59.734375 11.21484375 C-59.73663086 9.92698975 -59.73888672 8.63913574 -59.74121094 7.31225586 C-59.98060305 4.24826261 -60.37596607 2.55821631 -62 0 C-57.93756043 -0.05819473 -53.87522854 -0.09366215 -49.8125 -0.125 C-48.66201172 -0.14175781 -47.51152344 -0.15851562 -46.32617188 -0.17578125 C-45.21435547 -0.18222656 -44.10253906 -0.18867187 -42.95703125 -0.1953125 C-41.93585205 -0.20578613 -40.91467285 -0.21625977 -39.86254883 -0.22705078 C-36.8114084 0.01495865 -34.70932349 0.58646545 -32 2 C-29.86250075 5.20624887 -29.70425001 6.22458103 -29.6875 9.9375 C-29.67074219 10.79214844 -29.65398437 11.64679687 -29.63671875 12.52734375 C-30.06495831 15.4421356 -31.07709539 16.81326679 -33 19 C-32.195625 19.680625 -31.39125 20.36125 -30.5625 21.0625 C-27.57711289 24.48477302 -27.26218749 26.5428126 -27 31 C-26.34 31 -25.68 31 -25 31 C-25 31.99 -25 32.98 -25 34 C-24.34 34 -23.68 34 -23 34 C-23 34.66 -23 35.32 -23 36 C-18.93116313 36.65597806 -15.15954541 37.17269825 -11.0625 36.5625 C-7.74348255 34.04809284 -7.71279144 31.01755175 -7 27 C-7.6290625 26.82984375 -8.258125 26.6596875 -8.90625 26.484375 C-23.41584158 22.37623762 -23.41584158 22.37623762 -27 17 C-28.05244106 13.34085061 -28.82169898 9.66446717 -27.0859375 6.1484375 C-23.13199081 1.22419715 -19.5283139 -0.23897976 -13.37109375 -0.9140625 C-8.88535676 -1.07664275 -4.44897768 -0.53158741 0 0 Z M-49 4 C-49.58063515 12.47105203 -50.10723627 20.94620737 -50.25 29.4375 C-50.27578125 30.65308594 -50.3015625 31.86867188 -50.328125 33.12109375 C-50.21984375 34.07113281 -50.1115625 35.02117187 -50 36 C-47.11279881 38.36721366 -47.11279881 38.36721366 -43.5 37.75 C-39.90879501 37.20500944 -39.90879501 37.20500944 -37 35 C-36.52175649 32.6712213 -36.52175649 32.6712213 -36.625 30.0625 C-36.61726563 29.18722656 -36.60953125 28.31195313 -36.6015625 27.41015625 C-37.07487208 24.54709733 -37.68341931 23.70024271 -40 22 C-42.32873375 21.31744011 -44.66182791 20.64949225 -47 20 C-47.33 19.34 -47.66 18.68 -48 18 C-47.071875 17.896875 -46.14375 17.79375 -45.1875 17.6875 C-42.10977634 17.20277465 -42.10977634 17.20277465 -40.125 15.875 C-38.32531929 12.87553214 -38.63505714 10.40613332 -39 7 C-39.91666667 4.91666667 -39.91666667 4.91666667 -42 4 C-44.33294107 3.95721683 -46.66711716 3.95415144 -49 4 Z " fill="#191919" transform="translate(169,34)"/>
<path d="M0 0 C1.02544922 -0.02900391 2.05089844 -0.05800781 3.10742188 -0.08789062 C11.33355482 -0.15631016 16.59824229 1.40879765 22.8125 6.8125 C26.7742651 11.47340012 27.21190922 14.5927746 27.1875 20.75 C27.19523437 22.69712891 27.19523437 22.69712891 27.203125 24.68359375 C26.95685446 28.0480839 26.39772081 30.30514047 24.9375 33.3125 C24.2775 33.3125 23.6175 33.3125 22.9375 33.3125 C22.6590625 34.17875 22.6590625 34.17875 22.375 35.0625 C20.23110524 38.41816137 17.61730416 40.01495926 13.9375 41.3125 C9.4457104 41.79203234 5.01065258 41.69046178 0.5 41.5625 C-0.70849609 41.54445312 -1.91699219 41.52640625 -3.16210938 41.5078125 C-6.12973184 41.46089357 -9.09569661 41.39525602 -12.0625 41.3125 C-12.0625 40.6525 -12.0625 39.9925 -12.0625 39.3125 C-11.4025 39.3125 -10.7425 39.3125 -10.0625 39.3125 C-10.01307101 34.38290878 -9.97676682 29.45346175 -9.95263672 24.52368164 C-9.94257763 22.84657275 -9.92892878 21.16948139 -9.91162109 19.49243164 C-9.88736848 17.08214998 -9.8760161 14.67210014 -9.8671875 12.26171875 C-9.85170364 11.13657112 -9.85170364 11.13657112 -9.83590698 9.98869324 C-9.835092 6.20949221 -9.91192933 4.53835601 -12.0625 1.3125 C-9.60707262 -1.14292738 -3.29211351 0.03023987 0 0 Z M-0.0625 4.3125 C-0.0625 15.2025 -0.0625 26.0925 -0.0625 37.3125 C6.02932252 38.32780375 8.75761487 38.29207994 13.9375 35.3125 C18.03391842 30.29108388 18.34995848 24.60249178 17.9375 18.3125 C17.22794206 14.09421057 16.51483432 9.94408126 13.4609375 6.78515625 C8.67626375 3.71553679 6.28742192 4.3125 -0.0625 4.3125 Z " fill="#141414" transform="translate(81.0625,33.6875)"/>
<path d="M0 0 C2.77109307 -0.05392397 5.54113818 -0.09363455 8.3125 -0.125 C9.09818359 -0.14175781 9.88386719 -0.15851562 10.69335938 -0.17578125 C11.45068359 -0.18222656 12.20800781 -0.18867187 12.98828125 -0.1953125 C13.68477783 -0.20578613 14.38127441 -0.21625977 15.09887695 -0.22705078 C17 0 17 0 20 2 C19.34 2.66 18.68 3.32 18 4 C16.35 4 14.7 4 13 4 C13 14.56 13 25.12 13 36 C13.66 36.33 14.32 36.66 15 37 C15 37.66 15 38.32 15 39 C15.99 39.33 16.98 39.66 18 40 C12.39 40 6.78 40 1 40 C1.33 38.68 1.66 37.36 2 36 C2.20003373 31.41704224 2.18580655 26.83284846 2.18530273 22.24609375 C2.18749255 20.00762003 2.2056775 17.76963684 2.22460938 15.53125 C2.22754308 14.10416835 2.22952803 12.67708436 2.23046875 11.25 C2.23457764 9.95578125 2.23868652 8.6615625 2.24291992 7.328125 C2.01803068 4.24702935 1.63617125 2.5679418 0 0 Z " fill="#171717" transform="translate(107,34)"/>
<path d="M0 0 C0.33 0 0.66 0 1 0 C1.3690205 13.6332574 1.3690205 13.6332574 -1 20 C-0.195625 20.12375 0.60875 20.2475 1.4375 20.375 C2.7059375 20.684375 2.7059375 20.684375 4 21 C4.33 21.66 4.66 22.32 5 23 C6.32 22.67 7.64 22.34 9 22 C9 22.66 9 23.32 9 24 C9.639375 23.67 10.27875 23.34 10.9375 23 C15.01236841 21.66943072 18.75190425 21.83340801 23 22 C23 22.66 23 23.32 23 24 C21.84371094 24.19916016 21.84371094 24.19916016 20.6640625 24.40234375 C19.66117188 24.57894531 18.65828125 24.75554687 17.625 24.9375 C16.62726562 25.11152344 15.62953125 25.28554687 14.6015625 25.46484375 C12.03090344 25.87712062 12.03090344 25.87712062 10 27 C7 27.1875 7 27.1875 4 27 C3.34 26.34 2.68 25.68 2 25 C2 24.01 2 23.02 2 22 C1.360625 21.855625 0.72125 21.71125 0.0625 21.5625 C-2 21 -2 21 -3 20 C-2.3664204 13.28405626 -1.14080236 6.64545066 0 0 Z " fill="#CA5052" transform="translate(23,50)"/>
<path d="M0 0 C2 3 2 3 3 6 C1.75 8.1875 1.75 8.1875 0 10 C-0.99 10 -1.98 10 -3 10 C-3.144375 10.639375 -3.28875 11.27875 -3.4375 11.9375 C-4 14 -4 14 -5 15 C-9.46074638 15.31121486 -12.8369263 14.58593284 -17 13 C-16.0409375 12.5978125 -16.0409375 12.5978125 -15.0625 12.1875 C-12.66868314 11.11332248 -12.66868314 11.11332248 -12 8 C-11.01 8 -10.02 8 -9 8 C-9 9.32 -9 10.64 -9 12 C-7.68 12 -6.36 12 -5 12 C-5 10.68 -5 9.36 -5 8 C-3.35 8 -1.7 8 0 8 C0 5.36 0 2.72 0 0 Z " fill="#C12A29" transform="translate(63,62)"/>
<path d="M0 0 C0.99 0 1.98 0 3 0 C3 0.99 3 1.98 3 3 C3.66 3 4.32 3 5 3 C5 3.66 5 4.32 5 5 C6.65 5.33 8.3 5.66 10 6 C9.01 6.495 9.01 6.495 8 7 C8 7.66 8 8.32 8 9 C12.62 9 17.24 9 22 9 C22 9.33 22 9.66 22 10 C15.07 10 8.14 10 1 10 C0.67 6.7 0.34 3.4 0 0 Z " fill="#424242" transform="translate(141,65)"/>
<path d="M0 0 C3.76165664 0.50833198 5.50035938 1.1594993 8 4 C8.99 4.66 9.98 5.32 11 6 C9.35 6 7.7 6 6 6 C6 7.65 6 9.3 6 11 C7.65 11 9.3 11 11 11 C7.80009492 13.74277578 4.99500618 15.6302836 1 17 C1.33 16.484375 1.66 15.96875 2 15.4375 C3.72651677 11.22911538 3.41933513 7.25800538 2 3 C1.01 3.495 1.01 3.495 0 4 C0 2.68 0 1.36 0 0 Z " fill="#CE4A50" transform="translate(34,46)"/>
<path d="M0 0 C3.21743924 0.18562149 5.35756683 0.82635498 8.25 2.1875 C7.26 2.8475 6.27 3.5075 5.25 4.1875 C2.5625 3.3125 2.5625 3.3125 0.25 2.1875 C-0.306875 3.1775 -0.86375 4.1675 -1.4375 5.1875 C-3.75 8.1875 -3.75 8.1875 -6.5 8.5625 C-7.2425 8.43875 -7.985 8.315 -8.75 8.1875 C-9.08 9.5075 -9.41 10.8275 -9.75 12.1875 C-9.75 10.5375 -9.75 8.8875 -9.75 7.1875 C-8.945625 6.94 -8.14125 6.6925 -7.3125 6.4375 C-4.58364774 5.47371485 -4.58364774 5.47371485 -4 3.125 C-3.9175 2.485625 -3.835 1.84625 -3.75 1.1875 C-2.75 0.1875 -2.75 0.1875 0 0 Z " fill="#C84143" transform="translate(29.75,31.8125)"/>
<path d="M0 0 C0.33 0.66 0.66 1.32 1 2 C1.639375 1.67 2.27875 1.34 2.9375 1 C7.01236841 -0.33056928 10.75190425 -0.16659199 15 0 C15 0.66 15 1.32 15 2 C13.84371094 2.19916016 13.84371094 2.19916016 12.6640625 2.40234375 C11.66117188 2.57894531 10.65828125 2.75554687 9.625 2.9375 C8.12839844 3.19853516 8.12839844 3.19853516 6.6015625 3.46484375 C4.03090344 3.87712062 4.03090344 3.87712062 2 5 C0.00039988 5.039992 -2.00047242 5.04346799 -4 5 C-3 2 -3 2 0 0 Z " fill="#C54544" transform="translate(31,72)"/>
<path d="M0 0 C0 3 0 3 -1 5 C-1.039992 6.99960012 -1.04346799 9.00047242 -1 11 C-1.33 10.01 -1.66 9.02 -2 8 C-2.763125 8.495 -3.52625 8.99 -4.3125 9.5 C-7 11 -7 11 -10 11 C-10 9.68 -10 8.36 -10 7 C-8.06640625 5.33203125 -8.06640625 5.33203125 -5.5625 3.8125 C-4.73878906 3.30332031 -3.91507812 2.79414062 -3.06640625 2.26953125 C-2.38449219 1.85058594 -1.70257813 1.43164062 -1 1 C-0.67 0.67 -0.34 0.34 0 0 Z " fill="#464646" transform="translate(341,63)"/>
<path d="M0 0 C0.99 0 1.98 0 3 0 C2.67515625 0.76570313 2.67515625 0.76570313 2.34375 1.546875 C-0.17035499 8.11148247 -0.31865951 14.02489733 0 21 C-0.66 21 -1.32 21 -2 21 C-4.48575898 16.02848205 -2.43319172 7.95287049 -0.9375 2.75 C-0.4734375 1.38875 -0.4734375 1.38875 0 0 Z " fill="#B62E31" transform="translate(63,41)"/>
<path d="M0 0 C3.76165664 0.50833198 5.50035938 1.1594993 8 4 C8.99 4.66 9.98 5.32 11 6 C9.35 6 7.7 6 6 6 C5.67 5.01 5.34 4.02 5 3 C3.35 3.33 1.7 3.66 0 4 C0 2.68 0 1.36 0 0 Z " fill="#C93436" transform="translate(34,46)"/>
<path d="M0 0 C0.33 0.66 0.66 1.32 1 2 C1.66 2 2.32 2 3 2 C2.67 2.99 2.34 3.98 2 5 C0.02 5 -1.96 5 -4 5 C-3 2 -3 2 0 0 Z " fill="#BF2B2B" transform="translate(31,72)"/>
<path d="M0 0 C0.33 0 0.66 0 1 0 C1.02693575 2.12493141 1.04636628 4.24995912 1.0625 6.375 C1.07410156 7.55835938 1.08570313 8.74171875 1.09765625 9.9609375 C1 13 1 13 0 15 C-0.66 15 -1.32 15 -2 15 C-1.34 10.05 -0.68 5.1 0 0 Z " fill="#C74A49" transform="translate(23,50)"/>
<path d="M0 0 C2 3 2 3 3 6 C1.5625 8.1875 1.5625 8.1875 0 10 C-0.99 9.67 -1.98 9.34 -3 9 C-2.34 8.67 -1.68 8.34 -1 8 C-0.53476937 6.10466658 -0.53476937 6.10466658 -0.375 3.9375 C-0.25125 2.638125 -0.1275 1.33875 0 0 Z " fill="#BE4B46" transform="translate(63,62)"/>
<path d="M0 0 C4.21878192 -0.19622241 7.17010894 0.19769832 11 2 C10.01 2.66 9.02 3.32 8 4 C4.89366697 3.06810009 2.71209558 1.80806372 0 0 Z " fill="#CF5A5D" transform="translate(27,32)"/>
<path d="" fill="#FFFFFF" transform="translate(0,0)"/>
</svg>
